<svg xmlns="http://www.w3.org/2000/svg" width="860" height="220" viewBox="0 0 860 220">
<rect width="860" height="220" rx="14" fill="#0b0f14"/>
<rect x="91" y="38" width="11" height="11" rx="2" fill="#ff9e64"/>
<rect x="91" y="51" width="11" height="11" rx="2" fill="#ff9e64"/>
<rect x="104" y="51" width="11" height="11" rx="2" fill="#ff9e64"/>
<rect x="78" y="64" width="11" height="11" rx="2" fill="#ff7a45"/>
<rect x="91" y="64" width="11" height="11" rx="2" fill="#ff7a45"/>
<rect x="104" y="64" width="11" height="11" rx="2" fill="#ff7a45"/>
<rect x="78" y="77" width="11" height="11" rx="2" fill="#ff7a45"/>
<rect x="91" y="77" width="11" height="11" rx="2" fill="#ffd166"/>
<rect x="104" y="77" width="11" height="11" rx="2" fill="#ffd166"/>
<rect x="117" y="77" width="11" height="11" rx="2" fill="#ff7a45"/>
<rect x="65" y="90" width="11" height="11" rx="2" fill="#ff7a45"/>
<rect x="78" y="90" width="11" height="11" rx="2" fill="#ffd166"/>
<rect x="91" y="90" width="11" height="11" rx="2" fill="#ffd166"/>
<rect x="104" y="90" width="11" height="11" rx="2" fill="#ffd166"/>
<rect x="117" y="90" width="11" height="11" rx="2" fill="#ff7a45"/>
<rect x="65" y="103" width="11" height="11" rx="2" fill="#ff7a45"/>
<rect x="78" y="103" width="11" height="11" rx="2" fill="#ff7a45"/>
<rect x="91" y="103" width="11" height="11" rx="2" fill="#ffd166"/>
<rect x="104" y="103" width="11" height="11" rx="2" fill="#ff7a45"/>
<rect x="117" y="103" width="11" height="11" rx="2" fill="#ff7a45"/>
<rect x="78" y="116" width="11" height="11" rx="2" fill="#ff7a45"/>
<rect x="91" y="116" width="11" height="11" rx="2" fill="#ff7a45"/>
<rect x="104" y="116" width="11" height="11" rx="2" fill="#ff7a45"/>
<rect x="52" y="137" width="11" height="11" rx="2" fill="#9fb8c9"/>
<rect x="52" y="150" width="11" height="11" rx="2" fill="#9fb8c9"/>
<rect x="65" y="137" width="11" height="11" rx="2" fill="#7d9db1"/>
<rect x="65" y="150" width="11" height="11" rx="2" fill="#7d9db1"/>
<rect x="78" y="137" width="11" height="11" rx="2" fill="#9fb8c9"/>
<rect x="78" y="150" width="11" height="11" rx="2" fill="#9fb8c9"/>
<rect x="91" y="137" width="11" height="11" rx="2" fill="#8aa9bc"/>
<rect x="91" y="150" width="11" height="11" rx="2" fill="#8aa9bc"/>
<rect x="104" y="137" width="11" height="11" rx="2" fill="#7d9db1"/>
<rect x="104" y="150" width="11" height="11" rx="2" fill="#7d9db1"/>
<rect x="117" y="137" width="11" height="11" rx="2" fill="#9fb8c9"/>
<rect x="117" y="150" width="11" height="11" rx="2" fill="#9fb8c9"/>
<rect x="130" y="137" width="11" height="11" rx="2" fill="#8aa9bc"/>
<rect x="130" y="150" width="11" height="11" rx="2" fill="#8aa9bc"/>
<rect x="143" y="137" width="11" height="11" rx="2" fill="#7d9db1"/>
<rect x="143" y="150" width="11" height="11" rx="2" fill="#7d9db1"/>
<rect x="156" y="137" width="11" height="11" rx="2" fill="#9fb8c9"/>
<rect x="156" y="150" width="11" height="11" rx="2" fill="#9fb8c9"/>
<rect x="215" y="56" width="11" height="11" rx="2" fill="#ffb27a"/>
<rect x="228" y="56" width="11" height="11" rx="2" fill="#ffb27a"/>
<rect x="241" y="56" width="11" height="11" rx="2" fill="#ffb27a"/>
<rect x="254" y="56" width="11" height="11" rx="2" fill="#ffb27a"/>
<rect x="267" y="56" width="11" height="11" rx="2" fill="#ffb27a"/>
<rect x="241" y="69" width="11" height="11" rx="2" fill="#ffb27a"/>
<rect x="241" y="82" width="11" height="11" rx="2" fill="#ffb27a"/>
<rect x="241" y="95" width="11" height="11" rx="2" fill="#ffb27a"/>
<rect x="241" y="108" width="11" height="11" rx="2" fill="#ffb27a"/>
<rect x="241" y="121" width="11" height="11" rx="2" fill="#ffb27a"/>
<rect x="241" y="134" width="11" height="11" rx="2" fill="#ffb27a"/>
<rect x="296" y="56" width="11" height="11" rx="2" fill="#f2c9a0"/>
<rect x="309" y="56" width="11" height="11" rx="2" fill="#f2c9a0"/>
<rect x="322" y="56" width="11" height="11" rx="2" fill="#f2c9a0"/>
<rect x="335" y="56" width="11" height="11" rx="2" fill="#f2c9a0"/>
<rect x="348" y="56" width="11" height="11" rx="2" fill="#f2c9a0"/>
<rect x="296" y="69" width="11" height="11" rx="2" fill="#f2c9a0"/>
<rect x="296" y="82" width="11" height="11" rx="2" fill="#f2c9a0"/>
<rect x="296" y="95" width="11" height="11" rx="2" fill="#f2c9a0"/>
<rect x="309" y="95" width="11" height="11" rx="2" fill="#f2c9a0"/>
<rect x="322" y="95" width="11" height="11" rx="2" fill="#f2c9a0"/>
<rect x="335" y="95" width="11" height="11" rx="2" fill="#f2c9a0"/>
<rect x="296" y="108" width="11" height="11" rx="2" fill="#f2c9a0"/>
<rect x="296" y="121" width="11" height="11" rx="2" fill="#f2c9a0"/>
<rect x="296" y="134" width="11" height="11" rx="2" fill="#f2c9a0"/>
<rect x="309" y="134" width="11" height="11" rx="2" fill="#f2c9a0"/>
<rect x="322" y="134" width="11" height="11" rx="2" fill="#f2c9a0"/>
<rect x="335" y="134" width="11" height="11" rx="2" fill="#f2c9a0"/>
<rect x="348" y="134" width="11" height="11" rx="2" fill="#f2c9a0"/>
<rect x="377" y="56" width="11" height="11" rx="2" fill="#e8edf3"/>
<rect x="429" y="56" width="11" height="11" rx="2" fill="#e8edf3"/>
<rect x="377" y="69" width="11" height="11" rx="2" fill="#e8edf3"/>
<rect x="390" y="69" width="11" height="11" rx="2" fill="#e8edf3"/>
<rect x="416" y="69" width="11" height="11" rx="2" fill="#e8edf3"/>
<rect x="429" y="69" width="11" height="11" rx="2" fill="#e8edf3"/>
<rect x="377" y="82" width="11" height="11" rx="2" fill="#e8edf3"/>
<rect x="403" y="82" width="11" height="11" rx="2" fill="#e8edf3"/>
<rect x="429" y="82" width="11" height="11" rx="2" fill="#e8edf3"/>
<rect x="377" y="95" width="11" height="11" rx="2" fill="#e8edf3"/>
<rect x="403" y="95" width="11" height="11" rx="2" fill="#e8edf3"/>
<rect x="429" y="95" width="11" height="11" rx="2" fill="#e8edf3"/>
<rect x="377" y="108" width="11" height="11" rx="2" fill="#e8edf3"/>
<rect x="429" y="108" width="11" height="11" rx="2" fill="#e8edf3"/>
<rect x="377" y="121" width="11" height="11" rx="2" fill="#e8edf3"/>
<rect x="429" y="121" width="11" height="11" rx="2" fill="#e8edf3"/>
<rect x="377" y="134" width="11" height="11" rx="2" fill="#e8edf3"/>
<rect x="429" y="134" width="11" height="11" rx="2" fill="#e8edf3"/>
<rect x="458" y="56" width="11" height="11" rx="2" fill="#e8edf3"/>
<rect x="471" y="56" width="11" height="11" rx="2" fill="#e8edf3"/>
<rect x="484" y="56" width="11" height="11" rx="2" fill="#e8edf3"/>
<rect x="497" y="56" width="11" height="11" rx="2" fill="#e8edf3"/>
<rect x="458" y="69" width="11" height="11" rx="2" fill="#e8edf3"/>
<rect x="510" y="69" width="11" height="11" rx="2" fill="#e8edf3"/>
<rect x="458" y="82" width="11" height="11" rx="2" fill="#e8edf3"/>
<rect x="510" y="82" width="11" height="11" rx="2" fill="#e8edf3"/>
<rect x="458" y="95" width="11" height="11" rx="2" fill="#e8edf3"/>
<rect x="471" y="95" width="11" height="11" rx="2" fill="#e8edf3"/>
<rect x="484" y="95" width="11" height="11" rx="2" fill="#e8edf3"/>
<rect x="497" y="95" width="11" height="11" rx="2" fill="#e8edf3"/>
<rect x="458" y="108" width="11" height="11" rx="2" fill="#e8edf3"/>
<rect x="458" y="121" width="11" height="11" rx="2" fill="#e8edf3"/>
<rect x="458" y="134" width="11" height="11" rx="2" fill="#e8edf3"/>
<rect x="539" y="56" width="11" height="11" rx="2" fill="#e8edf3"/>
<rect x="552" y="56" width="11" height="11" rx="2" fill="#e8edf3"/>
<rect x="565" y="56" width="11" height="11" rx="2" fill="#e8edf3"/>
<rect x="578" y="56" width="11" height="11" rx="2" fill="#e8edf3"/>
<rect x="591" y="56" width="11" height="11" rx="2" fill="#e8edf3"/>
<rect x="539" y="69" width="11" height="11" rx="2" fill="#e8edf3"/>
<rect x="539" y="82" width="11" height="11" rx="2" fill="#e8edf3"/>
<rect x="539" y="95" width="11" height="11" rx="2" fill="#e8edf3"/>
<rect x="552" y="95" width="11" height="11" rx="2" fill="#e8edf3"/>
<rect x="565" y="95" width="11" height="11" rx="2" fill="#e8edf3"/>
<rect x="578" y="95" width="11" height="11" rx="2" fill="#e8edf3"/>
<rect x="539" y="108" width="11" height="11" rx="2" fill="#e8edf3"/>
<rect x="539" y="121" width="11" height="11" rx="2" fill="#e8edf3"/>
<rect x="539" y="134" width="11" height="11" rx="2" fill="#e8edf3"/>
<rect x="552" y="134" width="11" height="11" rx="2" fill="#e8edf3"/>
<rect x="565" y="134" width="11" height="11" rx="2" fill="#e8edf3"/>
<rect x="578" y="134" width="11" height="11" rx="2" fill="#e8edf3"/>
<rect x="591" y="134" width="11" height="11" rx="2" fill="#e8edf3"/>
<rect x="620" y="56" width="11" height="11" rx="2" fill="#e8edf3"/>
<rect x="633" y="56" width="11" height="11" rx="2" fill="#e8edf3"/>
<rect x="646" y="56" width="11" height="11" rx="2" fill="#e8edf3"/>
<rect x="659" y="56" width="11" height="11" rx="2" fill="#e8edf3"/>
<rect x="620" y="69" width="11" height="11" rx="2" fill="#e8edf3"/>
<rect x="672" y="69" width="11" height="11" rx="2" fill="#e8edf3"/>
<rect x="620" y="82" width="11" height="11" rx="2" fill="#e8edf3"/>
<rect x="672" y="82" width="11" height="11" rx="2" fill="#e8edf3"/>
<rect x="620" y="95" width="11" height="11" rx="2" fill="#e8edf3"/>
<rect x="633" y="95" width="11" height="11" rx="2" fill="#e8edf3"/>
<rect x="646" y="95" width="11" height="11" rx="2" fill="#e8edf3"/>
<rect x="659" y="95" width="11" height="11" rx="2" fill="#e8edf3"/>
<rect x="620" y="108" width="11" height="11" rx="2" fill="#e8edf3"/>
<rect x="646" y="108" width="11" height="11" rx="2" fill="#e8edf3"/>
<rect x="620" y="121" width="11" height="11" rx="2" fill="#e8edf3"/>
<rect x="659" y="121" width="11" height="11" rx="2" fill="#e8edf3"/>
<rect x="620" y="134" width="11" height="11" rx="2" fill="#e8edf3"/>
<rect x="672" y="134" width="11" height="11" rx="2" fill="#e8edf3"/>
<rect x="701" y="56" width="11" height="11" rx="2" fill="#e8edf3"/>
<rect x="714" y="56" width="11" height="11" rx="2" fill="#e8edf3"/>
<rect x="727" y="56" width="11" height="11" rx="2" fill="#e8edf3"/>
<rect x="740" y="56" width="11" height="11" rx="2" fill="#e8edf3"/>
<rect x="753" y="56" width="11" height="11" rx="2" fill="#e8edf3"/>
<rect x="701" y="69" width="11" height="11" rx="2" fill="#e8edf3"/>
<rect x="701" y="82" width="11" height="11" rx="2" fill="#e8edf3"/>
<rect x="701" y="95" width="11" height="11" rx="2" fill="#e8edf3"/>
<rect x="714" y="95" width="11" height="11" rx="2" fill="#e8edf3"/>
<rect x="727" y="95" width="11" height="11" rx="2" fill="#e8edf3"/>
<rect x="740" y="95" width="11" height="11" rx="2" fill="#e8edf3"/>
<rect x="701" y="108" width="11" height="11" rx="2" fill="#e8edf3"/>
<rect x="701" y="121" width="11" height="11" rx="2" fill="#e8edf3"/>
<rect x="701" y="134" width="11" height="11" rx="2" fill="#e8edf3"/>
<rect x="714" y="134" width="11" height="11" rx="2" fill="#e8edf3"/>
<rect x="727" y="134" width="11" height="11" rx="2" fill="#e8edf3"/>
<rect x="740" y="134" width="11" height="11" rx="2" fill="#e8edf3"/>
<rect x="753" y="134" width="11" height="11" rx="2" fill="#e8edf3"/>
<rect x="782" y="56" width="11" height="11" rx="2" fill="#e8edf3"/>
<rect x="795" y="56" width="11" height="11" rx="2" fill="#e8edf3"/>
<rect x="808" y="56" width="11" height="11" rx="2" fill="#e8edf3"/>
<rect x="821" y="56" width="11" height="11" rx="2" fill="#e8edf3"/>
<rect x="782" y="69" width="11" height="11" rx="2" fill="#e8edf3"/>
<rect x="834" y="69" width="11" height="11" rx="2" fill="#e8edf3"/>
<rect x="782" y="82" width="11" height="11" rx="2" fill="#e8edf3"/>
<rect x="834" y="82" width="11" height="11" rx="2" fill="#e8edf3"/>
<rect x="782" y="95" width="11" height="11" rx="2" fill="#e8edf3"/>
<rect x="834" y="95" width="11" height="11" rx="2" fill="#e8edf3"/>
<rect x="782" y="108" width="11" height="11" rx="2" fill="#e8edf3"/>
<rect x="834" y="108" width="11" height="11" rx="2" fill="#e8edf3"/>
<rect x="782" y="121" width="11" height="11" rx="2" fill="#e8edf3"/>
<rect x="834" y="121" width="11" height="11" rx="2" fill="#e8edf3"/>
<rect x="782" y="134" width="11" height="11" rx="2" fill="#e8edf3"/>
<rect x="795" y="134" width="11" height="11" rx="2" fill="#e8edf3"/>
<rect x="808" y="134" width="11" height="11" rx="2" fill="#e8edf3"/>
<rect x="821" y="134" width="11" height="11" rx="2" fill="#e8edf3"/>
<text x="54" y="194" font-family="ui-monospace,SFMono-Regular,Menlo,monospace" font-size="17" fill="#8b98a5">heat in · evidence out · never a word about the heat</text>
</svg>